<svg xmlns="http://www.w3.org/2000/svg" viewBox="160 105 630 165">
  <defs>
    <linearGradient id="gradient_0" gradientUnits="userSpaceOnUse" x1="500.345" y1="146.849" x2="539.825" y2="180.043">
      <stop offset="0" stop-color="#2CD932"/>
      <stop offset="1" stop-color="#4BFD3F"/>
    </linearGradient>
  </defs>
  <!-- S -->
  <path fill="#FEFEFE" d="M199.267 141.572C203.943 141.31 221.038 140.421 222.52 148.11C222.844 149.793 222.924 155.922 221.908 157.317C219.775 157.404 207.995 151.271 202.721 152.645C201.263 152.593 198.118 153.369 197.287 154.711C189.73 167.192 213.236 167.696 219.4 173.956C223.61 178.232 225.227 180.29 225.791 186.604C227.115 201.419 219.228 207.321 205.963 208.792C203.299 208.838 200.635 208.795 197.974 208.665C183.727 207.837 182.01 204.284 182.934 191.013C184.846 191.595 186.797 192.745 188.777 193.861C194.279 196.963 206.033 200.358 210.92 194.799C212.932 192.509 212.177 188.194 211.724 185.263C206.378 180.62 197.618 179.514 191.016 175.303C181.519 169.245 179.938 159.677 185.548 150.081C188.301 145.373 193.908 142.66 199.267 141.572Z"/>
  <!-- e -->
  <path fill="#FEFEFE" d="M249.746 157.656C268.091 155.851 280.142 166.039 277.682 185.999C277.197 189.934 249.922 185.901 245.495 187.931C244.179 191.636 248.152 196.439 251.778 197.307C260.006 199.279 265.489 197.752 272.65 193.938C274.207 193.485 274.854 193.254 276.173 193.726C276.246 193.903 276.449 194.397 276.47 194.588C276.968 201.081 276.955 205.812 269.612 207.507C253.983 211.114 236.438 209.467 232.332 191.027C230.617 183.325 231.343 173.758 235.855 166.954C239.486 161.477 243.356 159.033 249.746 157.656ZM257.076 177.379C260.264 177.408 264.129 178.17 264.999 174.386C264.189 170.335 258.252 167.659 254.413 167.839C251.141 168.417 245.03 171.995 245.027 175.457C246.535 178.557 253.778 177.442 257.076 177.379Z"/>
  <!-- l -->
  <path fill="#FEFEFE" d="M339.521 157.7C360.922 155.329 368.34 167.824 367.279 187.502C360.513 187.752 353.779 187.529 347.018 187.508C343.503 187.498 338.918 187.083 335.556 187.705C331.666 190.531 338.079 196.327 341.333 197.274C349.048 199.518 355.8 197.315 362.724 194.02C364.276 193.742 363.717 193.63 365.094 194.282C369.356 199.627 364.437 206.867 358.109 207.825C349.295 209.159 339.413 210.312 331.468 205.358C326.488 202.238 322.98 197.239 321.739 191.496C318.349 176.502 323.32 161.305 339.521 157.7ZM346.095 177.297C349.506 177.356 353.162 178.226 354.262 174.393C353.335 170.459 348.017 167.783 344.21 167.828C340.813 168.495 334.984 171.182 334.435 175C334.92 176.598 334.586 176.05 335.86 177.192C338.749 177.553 343.078 177.348 346.095 177.297Z"/>
  <!-- c -->
  <path fill="#FEFEFE" d="M393.091 157.674C397.685 157.238 412.103 156.726 413.736 163.314C414.182 165.115 414.62 169.294 414.051 171.061C411.629 172.772 404.973 168.738 400.831 168.824C397.283 168.898 397.124 168.816 393.556 169.976C383.98 179.078 385.421 198.768 401.547 197.741C406.666 197.416 409.474 194.817 414.151 193.169C415.274 199.574 414.866 206.714 407.317 208.278C392.534 211.339 378.079 206.429 375.016 190.226C372.286 175.786 377.289 160.686 393.091 157.674Z"/>
  <!-- t -->
  <path fill="#FEFEFE" d="M433.276 145.178C438.149 144.991 441.864 144.975 446.732 145.177L446.808 158.133C452.146 158.641 457.592 157.764 463.567 158.498C464.607 173.564 459.594 169.35 446.872 169.301C446.545 177.428 446.479 188.765 447.485 196.619C453.312 197.794 459.357 195.895 463.075 198.08C464.123 199.764 463.81 200.403 463.895 202.569C463.878 204.199 463.83 204.818 463.533 206.415C462.118 207.903 460.037 208.146 458.235 208.099C448.179 207.666 434.714 209.234 433.723 195.697C433.073 186.811 433.273 178.449 433.327 169.61C430.899 169.517 422.84 170.362 422.037 168.652C415.635 155.02 428.881 158.179 433.394 158.216C433.3 153.871 433.261 149.524 433.276 145.178Z"/>
  <!-- F (green gradient) -->
  <path fill="url(#gradient_0)" d="M563.238 129.182C568.274 128.715 576.214 128.502 577.757 135.389C577.964 136.315 577.62 136.755 577.251 137.575C573.99 139.378 569.841 136.148 566.065 136.007C555.851 135.626 521.624 146.928 514.591 153.533C512.052 155.916 506.403 163.817 506.297 167.338C508.63 168.874 525.326 162.609 534.582 166.489C535.755 166.981 535.964 167.388 536.405 168.548C535.456 172.215 532.107 171.59 528.898 172.512C520.154 175.022 503.309 176.035 496.963 182.682C492.719 189.115 489.81 197.071 486.843 204.188C485.26 207.987 479.674 210.367 476.996 207.145C477.021 200.463 495.188 169.238 499.238 160.817C496.862 158.499 492.503 155.743 494.314 152.285C498.745 148.936 509.231 146.666 514.997 144.575C530.665 138.892 546.552 131.003 563.238 129.182Z"/>
  <!-- r -->
  <path fill="#3AEA37" d="M551.041 163.094C552.418 162.955 552.709 163.006 554.07 163.226C556.783 165.095 557.037 169.172 557.73 172.523C566.148 172.39 570.207 171.977 577.429 176.385C578.685 178.395 579.642 179.801 579.15 182.155C575.998 185.491 565.871 179.366 558.835 180.06C554.557 184.919 552.858 188.589 550.355 194.364C548.512 198.55 546.323 203.434 543.34 206.933C541.507 209.082 536.984 210.824 534.482 209.179C532.701 204.785 542.86 191.9 544.335 186.735C546.268 179.967 546.802 168.476 551.041 163.094Z"/>
  <!-- e (green) -->
  <path fill="#3AEA37" d="M609.874 169.209C614.264 169.441 622.601 170.848 624.218 175.633C625.097 178.285 624.878 181.179 623.608 183.668C619.341 192.022 609.337 192.573 601.074 192.135C597.077 191.923 589.414 188.915 587.451 193.196C587.659 204.326 620.73 197.703 627.641 197.402C627.841 198.276 627.721 199.191 627.304 199.984C622.905 208.398 565.671 213.373 581.089 188.074C587.227 178.003 599.045 172.143 609.874 169.209ZM610.78 184.135C612.701 182.812 614.043 182.182 614.47 179.904C612.516 177.317 609.041 178.069 606.136 178.454C604.355 179.383 603.792 179.593 602.59 181.165C602.219 182.725 602.142 182.092 602.894 183.534C605.195 185.124 606.723 184.997 609.43 184.493C609.889 184.409 610.34 184.289 610.78 184.135Z"/>
  <!-- s (green) -->
  <path fill="#3AEA37" d="M687.791 155.81C689.301 156.151 688.838 155.855 689.951 156.891C693.199 165.971 665.117 169.314 658.36 173.326C666.495 177.04 691.654 178.555 680.731 195.106C675.095 203.645 663.248 207.54 653.604 209.483C639.433 212.338 630.19 202.265 628.003 188.976C629.87 187.618 629.195 187.754 631.254 187.545C637.164 189.514 639.817 203.205 650.37 202.403C656.637 201.926 675.093 195.188 674.925 188.204C671.463 183.453 652.04 181.15 646.325 177.791C645.406 177.25 640.53 174.908 642.726 173.135C653.744 164.238 674.525 159.132 687.791 155.81Z"/>
  <!-- h -->
  <path fill="#3AEA37" d="M697.404 208.262C694.711 208.331 691.21 208.57 689.649 206.031C689.215 201.857 698.571 191.304 701.272 187.554C709.21 176.535 718.16 166.716 722.878 153.756C724.154 150.251 728.296 140.372 731.509 138.562C734.21 137.041 739.503 140.903 737.014 144.951C732.563 155.271 727 164.836 722.153 174.928L722.483 175.529C727.128 173.738 745.83 164.511 749.243 165.983C762.191 171.567 745.403 196.496 742.167 205.293C746.518 218.451 730.907 216.63 732.443 207.244C733.534 200.576 747.227 180.14 743.411 174.389C741.063 173.351 734.664 176.949 732.057 177.875C720.733 181.896 711.267 188.213 704.355 198.222C702.151 201.413 699.963 205.4 697.404 208.262Z"/>
  <path fill="#24D324" d="M722.483 175.529C720.067 177.601 717.962 179.52 715.197 181.14L715.016 180.9C717.668 177.82 718.725 177.12 722.153 174.928L722.483 175.529Z"/>
  <!-- Red arrow -->
  <path fill="#FD1A17" d="M349.523 122.058L350.342 122.248L350.57 123.035C349.758 124.882 347.516 126.55 345.963 128.061C340.144 133.722 333.797 140.089 329.01 146.72C317.148 163.15 308.778 185.231 305.836 205.212C305.303 208.833 305.296 214.585 305.232 218.3C300.202 214.912 295.128 207.475 291.194 202.487C288.193 198.902 284.386 194.752 283.544 190.012C283.175 187.938 282.334 184.126 284.95 183.721C288.238 184.951 292.851 191.475 296.09 194.491C299.356 186.992 301.093 178.893 304.462 171.434C312.951 152.642 329.415 129.671 349.523 122.058Z"/>
  <!-- Providores (gold script) -->
  <path fill="#CA974D" d="M658.207 228.679C673.461 227.82 676.006 249.069 661.554 253.403C649.619 254.427 646.01 242.955 650.405 233.592C651.833 230.548 655.093 229.403 658.207 228.679ZM662.989 248.974C670.575 243.024 666.847 230.808 656.91 232.495C650.093 239.258 651.336 251.132 662.989 248.974Z"/>
  <path fill="#CA974D" d="M560.634 228.543C574.653 228.35 579.349 247.895 563.313 253.243C548.871 255.278 544.966 231.89 560.634 228.543ZM563.225 249.679C565.853 248.435 567.49 247.38 568.56 244.427C569.416 242 569.271 239.331 568.156 237.01C566.845 234.284 563.774 231.893 560.677 231.833C550.648 237.319 553.538 250.244 563.225 249.679Z"/>
  <path fill="#CA974D" d="M623.303 229.223C624.953 228.901 626.632 228.753 628.313 228.782C631.796 228.866 635.571 230.604 637.921 233.174C639.985 235.392 641.062 238.351 640.905 241.376C640.662 245.492 638.446 248.429 635.483 250.988C619.329 259.281 618.989 245.29 620.806 233.166C621.166 230.768 621.415 230.586 623.303 229.223ZM633.444 247.639C640.094 240.377 635.148 232.313 626.025 232.369C624.58 234.058 621.427 255.433 633.444 247.639Z"/>
  <path fill="#C48D4A" d="M685.144 242.904C682.442 243.944 684.674 249.43 684.171 252.024C683.325 252.909 682.958 252.891 681.786 253.069C681.122 252.751 680.079 252.151 679.993 251.205C679.707 247.282 678.545 234.198 680.263 231.04C683.151 225.731 694.051 228.416 695.968 235.275C696.304 241.574 688.418 243.291 695.524 249.275C696.514 250.108 696.012 251.289 695.652 252.262C691.827 254.96 688.605 244.951 685.144 242.904ZM691.915 236.538C690.936 234.405 689.059 231.76 686.313 232.929C685.323 233.357 684.561 234.184 684.215 235.205C683.147 238.368 686.147 239.873 688.539 240.667C688.9 240.466 689.257 240.257 689.609 240.039C691.359 238.948 691.453 238.548 691.915 236.538Z"/>
  <path fill="#CA974D" d="M691.915 236.538C691.786 234.933 691.615 235.377 692.251 234.012C693.734 233.874 694.479 234.548 695.968 235.275C696.304 241.574 688.418 243.291 695.524 249.275C696.514 250.108 696.012 251.289 695.652 252.262C691.827 254.96 688.605 244.951 685.144 242.904C684.184 242.25 683.656 241.551 682.902 240.676L683.049 240.053C685.273 239.733 685.432 240.768 688.191 240.681L688.539 240.667C688.9 240.466 689.257 240.257 689.609 240.039C691.359 238.948 691.453 238.548 691.915 236.538Z"/>
  <path fill="#C48D4A" d="M502.458 230.42C506.045 228.372 510.773 228.429 514.464 230.146C515.767 230.943 518.613 234.024 518.685 235.461C519.054 242.854 510.288 243.599 505.92 243.691C506.276 246.85 507.126 249.772 505.349 252.178C503.598 252.529 504.19 252.47 502.308 251.837C500.934 249.789 501.234 233.299 502.396 230.908L502.458 230.42ZM505.628 235.401C506.833 248.997 521.294 231.48 507.338 232.563C505.909 233.805 506.338 233.395 505.628 235.401Z"/>
  <path fill="#CA974D" d="M502.458 230.42C506.045 228.372 510.773 228.429 514.464 230.146C511.793 233.292 510.359 230.701 507.25 232.14C504.574 232.323 503.835 232.879 502.458 230.42Z"/>
  <path fill="#CA974D" d="M525.974 236.525C525.261 226.767 534.782 227.054 540.643 231.766C542.746 233.458 543.562 237.732 541.521 239.723C536.034 246.568 543.6 247.625 542.321 253.132C537.519 252.666 533.773 241.903 529.742 243.776L529.171 243.57C528.791 242.337 528.751 242.086 527.845 241.132C526.772 240.004 526.41 238.071 525.974 236.525ZM538.282 240.137C538.367 239.382 538.419 238.636 538.375 237.875C538.246 235.997 537.354 234.254 535.906 233.05C533.532 231.077 531.303 232.606 529.749 234.643C530.402 240.659 532.427 240.615 538.282 240.137Z"/>
  <path fill="#C48D4A" d="M527.845 241.132L529.203 240.56C530.246 239.145 528.9 237.435 529.749 234.643C530.402 240.659 532.427 240.615 538.282 240.137L538.717 241.147C540.023 241.12 540.233 240.631 541.521 239.723C536.034 246.568 543.6 247.625 542.321 253.132C537.519 252.666 533.773 241.903 529.742 243.776L529.171 243.57C528.791 242.337 528.751 242.086 527.845 241.132Z"/>
  <path fill="#CA974D" d="M733.195 233C732.873 240.197 746.156 239.611 745.402 247.649C745.193 249.881 742.12 251.155 740.913 252.278C738.782 254.261 727.488 253.553 728.644 249.884C732.169 246.756 738.999 252.653 740.852 246.832C738.806 241.562 723.986 241.13 729.614 232.027C730.757 233.094 731.539 233.523 733.195 233Z"/>
  <path fill="#C48D4A" d="M705.689 230.274C709.248 229.078 715.323 227.927 718.885 229.438C719.883 230.641 719.628 230.119 719.727 231.769C719.253 232.704 719.535 232.463 718.697 232.919C716.106 232.819 708.682 231.768 708.718 235.605C708.767 240.832 715.472 238.621 719.122 239.612C719.208 241.381 719.459 240.941 718.523 242.054L716.877 242.372C713.898 242.661 711.56 242.753 708.564 242.802C706.973 241.744 706.495 242.433 704.811 243.144C705.178 239.838 704.787 232.497 705.689 230.274Z"/>
  <path fill="#CA974D" d="M705.689 230.274C709.248 229.078 715.323 227.927 718.885 229.438C719.883 230.641 719.628 230.119 719.727 231.769C719.253 232.704 719.535 232.463 718.697 232.919C713.477 230.939 711.941 233.188 706.824 232.372C706.241 232.279 705.975 231.03 705.689 230.274Z"/>
  <path fill="#CA974D" d="M719.122 239.612C719.208 241.381 719.459 240.941 718.523 242.054L716.877 242.372C713.57 242.013 712.544 242.696 709.384 241.112L709.625 240.626C713.345 239.532 715.266 239.812 719.122 239.612Z"/>
  <path fill="#CA974D" d="M588.831 246.351C592.848 244.37 592.731 232.468 596.477 229.287C597.752 228.977 597.266 228.923 598.368 229.367C599.396 233.14 594.135 250.33 590.193 252.429C588.526 252.593 589.139 252.664 587.602 251.85C586.97 250.913 586.562 250.37 586.126 249.318C588.154 248.745 588.349 248.299 588.831 246.351Z"/>
  <path fill="#CA974D" d="M607.625 229.115C609.265 229.162 610.105 229.075 611.111 230.438C611.692 234.095 611.76 249.619 610.77 252.793C610.052 252.676 609.11 252.409 608.385 252.228C606.569 249.876 607.266 232.524 607.625 229.115Z"/>
  <path fill="#CA974D" d="M704.811 243.144C706.495 242.433 706.973 241.744 708.564 242.802C709.349 254.398 717.661 246.765 720.762 249.541L720.812 250.797C718.516 254.402 709.838 253.836 706.523 252.066C704.647 249.71 704.909 246.18 704.811 243.144Z"/>
  <path fill="#CA974D" d="M586.126 249.318C584.735 246.214 578.22 231.572 581.156 229.109C584.607 230.776 587.556 242.349 588.831 246.351C588.349 248.299 588.154 248.745 586.126 249.318Z"/>
  <path fill="#CA974D" d="M729.614 232.027C733.439 227.735 743.493 226.99 743.758 232.478C741.679 233.99 737.54 232.209 733.195 233C731.539 233.523 730.757 233.094 729.614 232.027Z"/>
  <path fill="#C48D4A" d="M525.974 236.525C526.41 238.071 526.772 240.004 527.845 241.132C528.751 242.086 528.791 242.337 529.171 243.57L529.742 243.776C530.283 246.13 531.693 250.848 529.867 252.537C528.361 252.605 528.05 252.673 526.733 251.962C525.522 249.593 526.001 240.066 525.974 236.525Z"/>
</svg>
